<?xml version="1.0" encoding="utf-8"?>
<!-- Generator: Adobe Illustrator 15.1.0, SVG Export Plug-In . SVG Version: 6.00 Build 0)  -->
<!DOCTYPE svg PUBLIC "-//W3C//DTD SVG 1.1//EN" "http://www.w3.org/Graphics/SVG/1.1/DTD/svg11.dtd">
<svg version="1.1" id="Layer_1" xmlns="http://www.w3.org/2000/svg" xmlns:xlink="http://www.w3.org/1999/xlink" x="0px" y="0px"
	 width="800px" height="300px" viewBox="0 0 800 300" enable-background="new 0 0 800 300" xml:space="preserve">
<g>
	<g>
		<g>
			<path fill="#202020" stroke="#808080" stroke-width="3" stroke-miterlimit="10" d="M297.079,226.001
				c0,4.768,1.077,5.535,7.074,5.535h19.223c5.536,0,6.458-2.613,7.074-19.836c3.076,2.305,9.227,4.613,13.226,5.688
				c-1.692,21.837-5.69,27.526-19.069,27.526h-22.298c-15.993,0-19.991-4.306-19.991-18.605V191.86h-21.683
				c-0.615,0.463-1.538,0.771-2.768,0.923c-4.306,24.605-11.687,44.444-49.671,55.209c-1.537-3.691-5.382-9.688-8.458-12.61
				c32.602-7.842,39.675-22.914,42.597-43.521h-39.06v-13.687h138.556v13.687h-44.75V226.001z M221.881,136.04v20.759h-14.762v-34.6
				h57.206v-18.454l19.222,1.076c-0.154,1.384-1.23,2.307-3.69,2.615v14.763h57.975v34.6h-15.532V136.04H221.881z M313.533,163.719
				h-82.271V150.34h82.271V163.719z"/>
			<path fill="#202020" stroke="#808080" stroke-width="3" stroke-miterlimit="10" d="M370.894,187.249v-20.914
				c-2,6.305-4.768,12.455-8.458,17.683c-1.845-2.768-6.92-8.302-9.535-9.995c9.073-13.532,10.15-31.371,10.15-44.596v-20.76h54.746
				v31.985h-42.29c-0.307,2.769-0.461,5.536-0.922,8.305h45.057v32.907h-35.984v5.385H370.894z M460.7,222.618
				c5.229,2.613,10.303,5.536,13.688,7.688l-3.539,3.383h25.837v11.382H355.977v-11.382h62.741v-11.07h-43.057v-10.459h43.057
				v-9.688h-50.132v-10.918h116.412v10.918h-51.671v9.688h44.135v10.459H460.7z M404.572,118.97h-28.757v11.533h28.757V118.97z
				 M406.57,159.105h-22.913v12.611h22.913V159.105z M485.613,128.043c-0.308,1.076-1.385,1.538-3.229,1.691
				c-1.692,3.538-4.152,8.305-6.459,12.457h21.067v10.61h-30.756v9.229h25.835v10.456h-25.835v14.917H452.55v-14.917h-25.526
				v-10.456h25.526v-9.229h-30.294v-10.61h18.453c-1.076-4.152-2.921-9.688-5.074-13.994l9.995-2.46h-18.761v-10.457h25.681v-11.38
				l17.068,0.923c-0.152,1.23-1.075,2.153-3.382,2.461v7.996h25.682v10.457h-16.454L485.613,128.043z M433.327,222.618v11.07h25.682
				c-4.459-2.613-9.535-5.381-13.532-7.379l4.151-3.691H433.327z M464.853,141.421c2.307-4.459,4.921-10.918,6.305-15.686h-24.758
				c2.459,4.767,5.074,11.227,5.844,15.378l-3.691,1.076h18.454L464.853,141.421z"/>
		</g>
		<g>
			<path fill="#414141" d="M247.328,49.966c-0.156,0.728-0.78,0.988-1.715,1.039c-0.572,2.703-1.403,7.432-2.027,10.497
				c1.871-0.208,3.846-0.364,5.041-0.364c8.262-0.052,10.913,5.56,10.913,13.511c0,2.079-0.364,7.171-1.559,10.965
				c-1.611,5.82-5.041,8.678-9.666,8.678c-2.078,0-5.04-0.987-9.406-4.417c0.728-1.299,1.404-2.91,1.819-4.417
				c3.846,2.857,5.977,3.481,7.483,3.481c2.494,0,3.949-1.819,4.884-4.936c0.832-2.754,1.351-7.275,1.351-9.562
				c-0.052-5.509-1.818-8.522-6.235-8.471c-1.402,0-3.326,0.104-5.612,0.416c-2.495,10.029-5.404,19.175-10.134,27.542l-4.78-2.286
				c4.624-7.951,7.378-15.486,9.665-24.683l-8.574,1.195l-0.416-5.093l9.978-1.091c0.727-3.793,1.455-8.367,1.975-12.835
				L247.328,49.966z M269.309,75.325c-1.455-7.223-6.184-13.718-10.964-17.512l3.949-2.91c5.457,3.95,10.913,11.38,12.316,18.396
				L269.309,75.325z"/>
			<path fill="#414141" d="M276.85,92.109c3.534-10.185,10.029-28.944,11.848-34.089c1.091-2.91,2.547-7.431,2.91-8.885l7.379,1.767
				c-0.26,0.728-0.988,1.091-2.13,1.144c-2.495,5.975-6.756,17.407-8.679,22.552h0.052c2.962-3.222,7.119-5.301,10.393-5.301
				c4.364,0,6.703,2.962,6.703,7.691c0,0.832-0.208,5.82-0.208,6.651c0,3.325,1.611,4.988,4.313,4.988
				c4.313,0,7.899-4.937,10.237-13.667c1.507,1.039,3.222,2.079,4.833,2.858c-3.066,9.977-8.002,16.16-15.277,16.16
				c-5.873,0-9.562-3.325-9.562-8.678c0-2.027,0.052-4.157,0.156-5.976v-0.675c0-2.91-0.987-4.417-2.858-4.417
				c-5.353,0-10.861,7.898-12.264,11.847c-0.675,1.923-1.714,4.885-2.597,7.639L276.85,92.109z"/>
		</g>
		<g>
			<path fill="#414141" d="M382.278,76.052c0,0.832-0.26,1.299-0.675,1.663l-4.365-5.248c2.651-2.495,8.21-8.366,10.809-11.172
				c3.585-3.793,5.716-4.885,8.419-4.885c3.43,0,5.716,1.871,9.822,6.859c3.74,4.573,12.313,14.083,19.85,21.046l-4.002,4.625
				c-6.909-6.339-15.277-16.057-18.396-20.059c-3.896-4.832-5.352-6.911-7.378-6.911c-1.767,0-3.326,1.715-6.392,5.3L382.278,76.052
				z M416.107,47.992c3.17,0,5.716,2.545,5.716,5.716c0,3.169-2.546,5.716-5.716,5.716s-5.769-2.546-5.769-5.716
				C410.339,50.435,413.042,47.992,416.107,47.992z M419.951,53.708c0-2.183-1.713-3.897-3.844-3.897
				c-2.13,0-3.897,1.714-3.897,3.897c0,2.13,1.768,3.897,3.897,3.897C418.342,57.605,419.951,55.734,419.951,53.708z"/>
			<path fill="#414141" d="M471.664,67.115c-4.158,1.402-9.718,2.39-15.07,2.962c1.611,2.598,4.574,5.923,8.055,7.274l-2.807,4.105
				c-2.962-1.558-4.312-2.286-8.677-2.286c-0.832,0-1.716,0.052-2.495,0.155l-1.142-3.897c0.57-0.052,1.194-0.052,1.868-0.052
				c1.197,0,2.495,0.052,3.378,0.156c-1.142-1.195-2.546-3.014-3.43-4.885c-3.74,0.26-7.897,0.416-11.12,0.416
				c-2.805,0-6.806,0-10.081-0.104l-0.052-4.364c2.962,0.104,7.016,0.104,9.977,0.104c2.858,0,6.652-0.104,9.771-0.312
				c-0.469-1.455-1.248-3.949-1.715-5.924c-1.663,0.156-4.572,0.26-9.926,0.26c-1.715,0-3.377-0.052-4.832-0.104V56.15
				c2.182,0.104,4.468,0.156,6.443,0.156c2.494,0,5.509,0,7.482-0.156c-0.469-2.287-0.936-5.093-1.299-7.794l6.911,0.156
				c0,0.571-0.52,0.987-1.403,1.195c0.208,1.923,0.469,4.105,0.832,6.028c4.571-0.416,9.873-1.455,13.511-2.806l1.092,4.469
				c-3.95,1.299-8.887,2.182-13.667,2.65c0.519,2.234,1.091,4.468,1.611,5.923c5.508-0.623,11.328-1.766,15.797-3.377
				L471.664,67.115z M450.618,94.292c-8.625-0.104-15.07-2.962-15.07-8.886c0-3.377,2.858-6.548,5.872-8.314l3.378,3.222
				c-2.547,1.351-3.949,3.222-4,4.884c-0.053,3.118,3.948,4.469,9.769,4.521c3.793,0,8.626-0.208,12.056-0.519l-0.208,4.78
				c-2.339,0.156-5.456,0.312-9.769,0.312H450.618z"/>
		</g>
	</g>
	<g>
		<path fill="#202020" stroke="#808080" stroke-width="3" stroke-miterlimit="10" d="M519.765,223.783
			c0.604-8.754,7.027-14.501,15.296-13.93c8.429,0.583,13.838,7.146,13.233,15.9c-0.582,8.431-6.529,14.372-15.283,13.766
			S519.192,232.05,519.765,223.783z M545.258,198.995l-18.805-1.299l2.65-85.49l25.289,1.748L545.258,198.995z"/>
		<path fill="#202020" stroke="#808080" stroke-width="3" stroke-miterlimit="10" d="M565.637,226.952
			c0.604-8.754,7.027-14.499,15.295-13.928c8.431,0.582,13.84,7.146,13.235,15.901c-0.583,8.427-6.531,14.368-15.286,13.765
			C570.128,242.084,565.065,235.22,565.637,226.952z M591.131,202.164l-18.805-1.298l2.647-85.491l25.289,1.747L591.131,202.164z"/>
	</g>
</g>
<g>
	<g>
		<g id="Body">
			<g>
				<path fill="#D2D3D4" d="M46.301,71.714c-9.367,5.944-15.588,16.399-15.588,28.312c0,18.512,15.003,33.518,33.515,33.518
					c2.526,0,4.981-0.289,7.347-0.819L46.301,71.714z"/>
				<path fill="#D2D3D4" d="M133.111,71.714c9.369,5.944,15.59,16.399,15.59,28.312c0,18.512-15.005,33.518-33.516,33.518
					c-2.525,0-4.982-0.289-7.347-0.819L133.111,71.714z"/>
			</g>
			<path fill="#D2D3D4" d="M142.323,141.846c0,21.891-17.747,39.637-39.638,39.637H76.26c-21.892,0-39.638-17.746-39.638-39.637l0,0
				c0-21.892,17.748-39.638,39.638-39.638h26.425C124.576,102.208,142.323,119.954,142.323,141.846L142.323,141.846z"/>
			<polygon fill="#D2D3D4" points="148.987,249.481 148.987,249.479 119.229,167.004 59.715,167.004 29.959,249.479 29.959,249.481 
							"/>
			<path fill="#D2D3D4" d="M167.474,182.881c2.615,6.944-0.896,14.693-7.842,17.309l-25.151,9.469
				c-6.946,2.613-14.695-0.898-17.311-7.845l0,0c-2.613-6.944,0.897-14.695,7.843-17.309l25.153-9.468
				C157.109,172.423,164.861,175.936,167.474,182.881L167.474,182.881z"/>
		</g>
		<g id="Mouth">
			<path fill="#010101" d="M104.177,152.613l-2.496,3.003c-0.31-0.14-0.592-0.267-0.846-0.38c-0.254-0.112-0.494-0.239-0.719-0.381
				c-2.397-1.354-4.569-3.118-6.516-5.289c-0.564-0.647-1.094-1.283-1.586-1.903c-0.494-0.621-0.967-1.255-1.417-1.904
				c-0.142-0.225-0.284-0.458-0.424-0.698c-0.142-0.239-0.311-0.502-0.507-0.784c-0.197,0.34-0.388,0.664-0.572,0.974
				c-0.184,0.312-0.346,0.594-0.486,0.847c-0.479,0.761-1.001,1.524-1.565,2.285c-0.565,0.762-1.17,1.551-1.819,2.369
				c-0.791,0.986-2.173,2.187-4.146,3.597c-0.311,0.226-0.693,0.493-1.143,0.805c-0.452,0.31-0.988,0.661-1.608,1.056
				c-0.507-0.479-1.022-0.938-1.544-1.374c-0.523-0.438-1.037-0.896-1.546-1.376c0.142,0,0.679-0.253,1.609-0.76
				c0.732-0.396,1.417-0.798,2.051-1.207c0.634-0.407,1.232-0.838,1.798-1.291c1.635-1.324,3.067-2.861,4.294-4.611
				c1.226-1.749,2.094-3.809,2.603-6.178c0.197-0.846,0.345-1.671,0.443-2.475c0.099-0.804,0.15-1.614,0.15-2.433
				c0-0.339,0-0.628,0-0.867c0-0.24-0.016-0.416-0.044-0.53l-0.083-0.253c0.252,0,0.583,0.021,0.993,0.063
				c0.409,0.043,0.895,0.119,1.459,0.232c1.101,0.169,1.678,0.339,1.735,0.508c0,0.311-0.057,0.635-0.17,0.974
				c-0.112,0.338-0.212,0.635-0.296,0.889c-0.056,0.141-0.141,0.691-0.253,1.65c-0.057,0.479-0.1,0.867-0.127,1.164
				c-0.028,0.295-0.042,0.514-0.042,0.655c0.14,0.422,0.267,0.847,0.38,1.269c0.112,0.422,0.227,0.846,0.339,1.271
				c0.846,2.002,2.172,3.906,3.977,5.711c0.679,0.679,1.376,1.305,2.095,1.883c0.721,0.579,1.459,1.107,2.221,1.587
				C101.751,151.612,103.021,152.246,104.177,152.613z"/>
		</g>
		<g id="EyesHappy">
			<path fill="#010101" d="M70.701,141.968c0.02-0.045,0.052-0.086,0.059-0.134c0.028-0.227-0.07-0.443-0.293-0.648l-7.423-6.857
				c-0.672-0.618-1.427-0.927-2.267-0.927c-0.838,0-1.593,0.309-2.265,0.927l-7.214,6.857c-0.375,0.307-0.481,0.585-0.325,0.84
				c-0.091,0.166-0.091,0.326,0,0.475c-0.091,0.168-0.091,0.326,0,0.474c-0.091,0.168-0.091,0.326,0,0.477
				c-0.091,0.166-0.091,0.324,0,0.475c-0.091,0.166-0.091,0.326,0,0.475c-0.091,0.166-0.091,0.324,0,0.474
				c-0.157,0.284-0.05,0.543,0.325,0.778c0.503,0.308,1.035,0.236,1.594-0.217l7.844-7.259l8.136,7.259
				c0.196,0.207,0.447,0.329,0.755,0.37c0.281,0.021,0.532-0.031,0.757-0.155c0.223-0.144,0.349-0.308,0.376-0.494
				c0.015-0.115-0.006-0.229-0.059-0.341c0.02-0.045,0.052-0.086,0.059-0.133c0.015-0.116-0.006-0.23-0.059-0.341
				c0.02-0.046,0.052-0.087,0.059-0.134c0.015-0.116-0.006-0.23-0.059-0.341c0.02-0.046,0.052-0.087,0.059-0.134
				c0.015-0.117-0.006-0.23-0.059-0.343c0.02-0.044,0.052-0.086,0.059-0.132c0.015-0.117-0.006-0.231-0.059-0.343
				c0.02-0.044,0.052-0.086,0.059-0.132c0.015-0.117-0.006-0.231-0.059-0.342c0.02-0.045,0.052-0.087,0.059-0.133
				C70.774,142.191,70.753,142.079,70.701,141.968z"/>
			<path fill="#010101" d="M128.448,141.968c0.02-0.045,0.052-0.086,0.059-0.134c0.028-0.227-0.07-0.443-0.293-0.648l-7.425-6.857
				c-0.672-0.618-1.427-0.927-2.265-0.927c-0.84,0-1.593,0.309-2.265,0.927l-7.215,6.857c-0.375,0.307-0.481,0.585-0.325,0.84
				c-0.091,0.166-0.091,0.326,0,0.475c-0.091,0.168-0.091,0.326,0,0.474c-0.091,0.168-0.091,0.326,0,0.477
				c-0.091,0.166-0.091,0.324,0,0.475c-0.091,0.166-0.091,0.326,0,0.475c-0.091,0.166-0.091,0.324,0,0.474
				c-0.156,0.284-0.05,0.543,0.325,0.778c0.502,0.308,1.034,0.236,1.593-0.217l7.844-7.259l8.139,7.259
				c0.194,0.207,0.445,0.329,0.753,0.37c0.279,0.021,0.531-0.031,0.755-0.155c0.225-0.144,0.349-0.308,0.378-0.494
				c0.013-0.115-0.006-0.229-0.059-0.341c0.02-0.045,0.051-0.086,0.059-0.133c0.013-0.116-0.006-0.23-0.059-0.341
				c0.02-0.046,0.051-0.087,0.059-0.134c0.013-0.116-0.006-0.23-0.059-0.341c0.02-0.046,0.051-0.087,0.059-0.134
				c0.013-0.117-0.006-0.23-0.059-0.343c0.02-0.044,0.051-0.086,0.059-0.132c0.013-0.117-0.006-0.231-0.059-0.343
				c0.02-0.044,0.051-0.086,0.059-0.132c0.013-0.117-0.006-0.231-0.059-0.342c0.02-0.045,0.051-0.087,0.059-0.133
				C128.521,142.191,128.5,142.079,128.448,141.968z"/>
		</g>
	</g>
	<g>
		<g id="Body_1_">
			<g>
				<path fill="#D2D3D4" d="M728.426,134.159c2.365,0.53,4.82,0.819,7.347,0.819c18.512,0,33.515-15.006,33.515-33.518
					c0-11.914-6.221-22.368-15.588-28.312L728.426,134.159z"/>
				<path fill="#D2D3D4" d="M692.161,134.159c-2.364,0.53-4.821,0.819-7.347,0.819c-18.511,0-33.516-15.006-33.516-33.518
					c0-11.914,6.222-22.368,15.59-28.312L692.161,134.159z"/>
			</g>
			<path fill="#D2D3D4" d="M657.678,143.28c0-21.892,17.746-39.638,39.637-39.638h26.426c21.89,0,39.637,17.746,39.637,39.638l0,0
				c0,21.891-17.746,39.637-39.637,39.637h-26.426C675.424,182.917,657.678,165.171,657.678,143.28L657.678,143.28z"/>
			<polygon fill="#D2D3D4" points="770.041,250.916 770.041,250.914 740.285,168.438 680.771,168.438 651.014,250.914 
				651.014,250.916 			"/>
			<path fill="#D2D3D4" d="M632.525,184.315c2.613-6.945,10.365-10.458,17.309-7.844l25.153,9.468
				c6.946,2.613,10.456,10.364,7.843,17.309l0,0c-2.615,6.946-10.365,10.458-17.311,7.845l-25.151-9.469
				C633.422,199.009,629.91,191.26,632.525,184.315L632.525,184.315z"/>
		</g>
		<g id="Mouth_1_">
			<path fill="#010101" d="M699.632,152.144c0.761-0.479,1.5-1.008,2.221-1.587c0.719-0.578,1.417-1.204,2.095-1.883
				c1.805-1.805,3.131-3.709,3.977-5.711c0.113-0.425,0.227-0.849,0.34-1.271c0.112-0.422,0.239-0.847,0.379-1.269
				c0-0.142-0.014-0.36-0.042-0.655c-0.027-0.297-0.069-0.685-0.127-1.164c-0.112-0.959-0.197-1.51-0.253-1.65
				c-0.084-0.254-0.184-0.551-0.297-0.889c-0.112-0.339-0.17-0.663-0.17-0.974c0.058-0.169,0.635-0.339,1.735-0.508
				c0.564-0.113,1.05-0.189,1.46-0.232c0.408-0.042,0.74-0.063,0.992-0.063l-0.083,0.253c-0.028,0.114-0.044,0.29-0.044,0.53
				c0,0.239,0,0.528,0,0.867c0,0.818,0.051,1.629,0.15,2.433c0.098,0.804,0.246,1.629,0.443,2.475
				c0.508,2.369,1.376,4.429,2.602,6.178c1.229,1.75,2.66,3.287,4.295,4.611c0.566,0.453,1.164,0.884,1.799,1.291
				c0.634,0.409,1.318,0.811,2.051,1.207c0.931,0.507,1.467,0.76,1.609,0.76c-0.509,0.48-1.022,0.938-1.546,1.376
				c-0.521,0.437-1.037,0.896-1.544,1.374c-0.619-0.395-1.156-0.746-1.607-1.056c-0.45-0.312-0.832-0.579-1.143-0.805
				c-1.974-1.41-3.355-2.61-4.146-3.597c-0.649-0.818-1.254-1.607-1.82-2.369c-0.564-0.761-1.086-1.524-1.564-2.285
				c-0.141-0.253-0.303-0.535-0.486-0.847c-0.184-0.31-0.375-0.634-0.572-0.974c-0.195,0.282-0.365,0.545-0.507,0.784
				c-0.141,0.24-0.282,0.474-0.425,0.698c-0.449,0.649-0.922,1.283-1.416,1.904c-0.492,0.62-1.022,1.256-1.586,1.903
				c-1.947,2.171-4.119,3.936-6.516,5.289c-0.225,0.142-0.465,0.269-0.719,0.381c-0.255,0.113-0.537,0.24-0.847,0.38l-2.496-3.003
				C696.979,153.681,698.249,153.047,699.632,152.144z"/>
		</g>
		<g id="EyesHappy_1_">
			<path fill="#010101" d="M729.24,143.743c0.007,0.046,0.039,0.088,0.059,0.133c-0.052,0.11-0.072,0.225-0.059,0.342
				c0.007,0.046,0.039,0.088,0.059,0.132c-0.052,0.111-0.072,0.226-0.059,0.343c0.007,0.046,0.039,0.088,0.059,0.132
				c-0.052,0.112-0.072,0.226-0.059,0.343c0.007,0.047,0.039,0.088,0.059,0.134c-0.052,0.11-0.072,0.225-0.059,0.341
				c0.007,0.047,0.039,0.088,0.059,0.134c-0.052,0.11-0.072,0.225-0.059,0.341c0.007,0.047,0.039,0.088,0.059,0.133
				c-0.052,0.111-0.072,0.226-0.059,0.341c0.028,0.187,0.154,0.351,0.377,0.494c0.225,0.124,0.477,0.177,0.757,0.155
				c0.308-0.041,0.56-0.163,0.755-0.37l8.136-7.259l7.845,7.259c0.559,0.453,1.09,0.524,1.594,0.217
				c0.375-0.235,0.481-0.494,0.324-0.778c0.092-0.149,0.092-0.308,0-0.474c0.092-0.148,0.092-0.309,0-0.475
				c0.092-0.15,0.092-0.309,0-0.475c0.092-0.15,0.092-0.309,0-0.477c0.092-0.147,0.092-0.306,0-0.474
				c0.092-0.148,0.092-0.309,0-0.475c0.157-0.255,0.051-0.533-0.324-0.84l-7.215-6.857c-0.672-0.618-1.426-0.927-2.264-0.927
				c-0.84,0-1.596,0.309-2.268,0.927l-7.423,6.857c-0.224,0.205-0.321,0.422-0.294,0.648c0.007,0.048,0.039,0.089,0.059,0.134
				C729.247,143.514,729.227,143.626,729.24,143.743z"/>
			<path fill="#010101" d="M671.494,143.743c0.008,0.046,0.039,0.088,0.059,0.133c-0.053,0.11-0.072,0.225-0.059,0.342
				c0.008,0.046,0.039,0.088,0.059,0.132c-0.053,0.111-0.072,0.226-0.059,0.343c0.008,0.046,0.039,0.088,0.059,0.132
				c-0.053,0.112-0.072,0.226-0.059,0.343c0.008,0.047,0.039,0.088,0.059,0.134c-0.053,0.11-0.072,0.225-0.059,0.341
				c0.008,0.047,0.039,0.088,0.059,0.134c-0.053,0.11-0.072,0.225-0.059,0.341c0.008,0.047,0.039,0.088,0.059,0.133
				c-0.053,0.111-0.072,0.226-0.059,0.341c0.029,0.187,0.152,0.351,0.377,0.494c0.225,0.124,0.477,0.177,0.756,0.155
				c0.308-0.041,0.559-0.163,0.753-0.37l8.14-7.259l7.844,7.259c0.559,0.453,1.091,0.524,1.593,0.217
				c0.375-0.235,0.481-0.494,0.325-0.778c0.091-0.149,0.091-0.308,0-0.474c0.091-0.148,0.091-0.309,0-0.475
				c0.091-0.15,0.091-0.309,0-0.475c0.091-0.15,0.091-0.309,0-0.477c0.091-0.147,0.091-0.306,0-0.474
				c0.091-0.148,0.091-0.309,0-0.475c0.156-0.255,0.05-0.533-0.325-0.84l-7.215-6.857c-0.671-0.618-1.425-0.927-2.265-0.927
				c-0.838,0-1.593,0.309-2.265,0.927l-7.425,6.857c-0.224,0.205-0.321,0.422-0.293,0.648c0.006,0.048,0.039,0.089,0.059,0.134
				C671.5,143.514,671.479,143.626,671.494,143.743z"/>
		</g>
	</g>
</g>
</svg>
