<?xml version="1.0" encoding="utf-8"?>
<!-- Generator: Adobe Illustrator 15.1.0, SVG Export Plug-In . SVG Version: 6.00 Build 0)  -->
<!DOCTYPE svg PUBLIC "-//W3C//DTD SVG 1.1//EN" "http://www.w3.org/Graphics/SVG/1.1/DTD/svg11.dtd">
<svg version="1.1" id="Layer_1" xmlns="http://www.w3.org/2000/svg" xmlns:xlink="http://www.w3.org/1999/xlink" x="0px" y="0px"
	 width="500px" height="500px" viewBox="0 0 500 500" enable-background="new 0 0 500 500" xml:space="preserve">
<rect x="324.339" y="131.667" display="none" fill="#414141" width="14.945" height="186.667"/>
<image display="none" overflow="visible" enable-background="new    " width="113" height="123" xlink:href="../../Screenshots/Screen Shot 2017-11-22 at 6.22.36 PM.png"  transform="matrix(3.3533 0 0 3.3533 60.543 43.7734)">
</image>
<g id="Body">
	<g>
		<path fill="#D1D3D4" d="M101.358,0C75.012,16.717,57.51,46.122,57.51,79.635c0,52.064,42.203,94.269,94.268,94.269
			c7.103,0,14.01-0.811,20.664-2.3L101.358,0z"/>
		<path fill="#D1D3D4" d="M345.523,0c26.351,16.717,43.854,46.122,43.854,79.635c0,52.064-42.205,94.269-94.27,94.269
			c-7.103,0-14.014-0.811-20.666-2.3L345.523,0z"/>
	</g>
	<path fill="#D1D3D4" d="M371.434,197.256c0,61.572-49.916,111.486-111.486,111.486h-74.324
		c-61.573,0-111.486-49.914-111.486-111.486l0,0c0-61.573,49.914-111.486,111.486-111.486h74.324
		C321.518,85.77,371.434,135.683,371.434,197.256L371.434,197.256z"/>
	<polygon fill="#D1D3D4" points="390.177,500 390.178,499.996 306.479,268.016 139.087,268.016 55.39,499.996 55.392,500 	"/>
	<path fill="#D1D3D4" d="M442.177,312.674c7.354,19.532-2.523,41.331-22.059,48.686l-70.743,26.628
		c-19.533,7.352-41.332-2.524-48.688-22.06l0,0c-7.353-19.534,2.523-41.334,22.06-48.688l70.745-26.627
		C413.024,283.261,434.824,293.139,442.177,312.674L442.177,312.674z"/>
</g>
<g id="EyesNeutral" display="none">
	<path display="inline" d="M161.866,197.255c0,10.844-8.79,19.636-19.632,19.636c-10.847,0-19.637-8.792-19.637-19.636
		c0-10.843,8.79-19.634,19.637-19.634C153.076,177.621,161.866,186.412,161.866,197.255z"/>
	<path display="inline" d="M324.288,197.255c0,10.844-8.791,19.636-19.632,19.636c-10.848,0-19.637-8.792-19.637-19.636
		c0-10.843,8.789-19.634,19.637-19.634C315.497,177.621,324.288,186.412,324.288,197.255z"/>
</g>
<g id="Mouth">
	<path d="M264.145,227.54l-7.021,8.45c-0.872-0.395-1.667-0.753-2.381-1.071c-0.715-0.315-1.389-0.673-2.021-1.071
		c-6.745-3.808-12.852-8.767-18.326-14.876c-1.588-1.823-3.077-3.608-4.463-5.355c-1.39-1.744-2.719-3.528-3.987-5.355
		c-0.398-0.633-0.795-1.289-1.19-1.963c-0.398-0.673-0.874-1.409-1.428-2.203c-0.556,0.953-1.091,1.866-1.606,2.737
		c-0.519,0.874-0.974,1.667-1.37,2.381c-1.349,2.141-2.816,4.284-4.403,6.426c-1.588,2.142-3.293,4.364-5.117,6.665
		c-2.224,2.776-6.111,6.149-11.663,10.115c-0.874,0.635-1.945,1.389-3.213,2.262c-1.269,0.873-2.778,1.864-4.521,2.974
		c-1.429-1.349-2.877-2.638-4.345-3.868c-1.469-1.229-2.916-2.518-4.344-3.868c0.396,0,1.904-0.711,4.523-2.14
		c2.061-1.112,3.985-2.241,5.771-3.392c1.785-1.149,3.468-2.36,5.058-3.631c4.6-3.727,8.627-8.052,12.079-12.972
		c3.45-4.918,5.89-10.71,7.319-17.374c0.554-2.381,0.97-4.7,1.248-6.963c0.278-2.261,0.419-4.541,0.419-6.842
		c0-0.953,0-1.765,0-2.44c0-0.672-0.042-1.17-0.121-1.489l-0.237-0.713c0.713,0,1.645,0.06,2.795,0.179
		c1.151,0.119,2.518,0.338,4.107,0.655c3.093,0.476,4.718,0.952,4.877,1.429c0,0.873-0.159,1.784-0.476,2.737
		c-0.317,0.95-0.595,1.784-0.833,2.498c-0.161,0.398-0.398,1.945-0.715,4.642c-0.159,1.35-0.278,2.44-0.356,3.273
		c-0.08,0.832-0.121,1.448-0.121,1.845c0.396,1.19,0.754,2.379,1.071,3.569c0.317,1.189,0.635,2.381,0.953,3.571
		c2.381,5.633,6.109,10.99,11.187,16.066c1.905,1.905,3.868,3.67,5.892,5.295c2.024,1.627,4.105,3.116,6.247,4.463
		C257.318,224.725,260.891,226.509,264.145,227.54z"/>
</g>
<rect x="220.623" y="44.213" display="none" fill="#414141" width="222.377" height="126.787"/>
<g>
	<path d="M169.987,207.599c0.055-0.126,0.144-0.243,0.165-0.375c0.077-0.638-0.198-1.246-0.826-1.824l-20.882-19.289
		c-1.887-1.737-4.012-2.606-6.371-2.606c-2.36,0-4.483,0.869-6.371,2.606L115.409,205.4c-1.058,0.86-1.352,1.647-0.913,2.362
		c-0.257,0.469-0.257,0.916,0,1.335c-0.257,0.47-0.257,0.916,0,1.335c-0.257,0.469-0.257,0.916,0,1.335
		c-0.257,0.469-0.257,0.915,0,1.336c-0.257,0.469-0.257,0.916,0,1.334c-0.257,0.469-0.257,0.916,0,1.335
		c-0.439,0.8-0.145,1.53,0.913,2.187c1.416,0.869,2.909,0.666,4.483-0.609l22.062-20.417l22.887,20.417
		c0.548,0.581,1.257,0.927,2.124,1.042c0.785,0.06,1.493-0.086,2.124-0.434c0.628-0.405,0.982-0.869,1.062-1.39
		c0.04-0.328-0.018-0.648-0.165-0.961c0.055-0.126,0.144-0.242,0.165-0.373c0.04-0.328-0.018-0.648-0.165-0.962
		c0.055-0.125,0.144-0.242,0.165-0.374c0.04-0.328-0.018-0.649-0.165-0.961c0.055-0.126,0.144-0.243,0.165-0.375
		c0.04-0.328-0.018-0.648-0.165-0.961c0.055-0.125,0.144-0.242,0.165-0.374c0.04-0.328-0.018-0.648-0.165-0.961
		c0.055-0.125,0.144-0.242,0.165-0.374c0.04-0.327-0.018-0.648-0.165-0.96c0.055-0.126,0.144-0.243,0.165-0.375
		C170.191,208.231,170.134,207.911,169.987,207.599z"/>
	<path d="M332.41,207.599c0.053-0.126,0.145-0.243,0.163-0.375c0.077-0.638-0.197-1.246-0.825-1.824l-20.885-19.289
		c-1.887-1.737-4.01-2.606-6.368-2.606c-2.36,0-4.481,0.869-6.37,2.606L277.832,205.4c-1.057,0.86-1.352,1.647-0.912,2.362
		c-0.258,0.469-0.258,0.916,0,1.335c-0.258,0.47-0.258,0.916,0,1.335c-0.258,0.469-0.258,0.916,0,1.335
		c-0.258,0.469-0.258,0.915,0,1.336c-0.258,0.469-0.258,0.916,0,1.334c-0.258,0.469-0.258,0.916,0,1.335
		c-0.439,0.8-0.145,1.53,0.912,2.187c1.414,0.869,2.908,0.666,4.482-0.609l22.062-20.417l22.889,20.417
		c0.549,0.581,1.256,0.927,2.121,1.042c0.784,0.06,1.493-0.086,2.123-0.434c0.631-0.405,0.983-0.869,1.062-1.39
		c0.039-0.328-0.018-0.648-0.163-0.961c0.053-0.126,0.144-0.242,0.163-0.373c0.039-0.328-0.018-0.648-0.163-0.962
		c0.053-0.125,0.144-0.242,0.163-0.374c0.039-0.328-0.018-0.649-0.163-0.961c0.053-0.126,0.144-0.243,0.163-0.375
		c0.039-0.328-0.018-0.648-0.163-0.961c0.053-0.125,0.144-0.242,0.163-0.374c0.039-0.328-0.018-0.648-0.163-0.961
		c0.053-0.125,0.144-0.242,0.163-0.374c0.039-0.327-0.018-0.648-0.163-0.96c0.053-0.126,0.144-0.243,0.163-0.375
		C332.613,208.231,332.557,207.911,332.41,207.599z"/>
	<path d="M276.898,170.393c-0.055,0.126-0.144,0.243-0.165,0.375c-0.077,0.638,0.198,1.246,0.826,1.824l20.882,19.289
		c1.887,1.737,4.012,2.606,6.371,2.606c2.36,0,4.483-0.869,6.371-2.606l20.293-19.289c1.058-0.86,1.352-1.647,0.913-2.362
		c0.257-0.469,0.257-0.916,0-1.335c0.257-0.47,0.257-0.916,0-1.335c0.257-0.469,0.257-0.916,0-1.335
		c0.257-0.469,0.257-0.915,0-1.336c0.257-0.469,0.257-0.916,0-1.334c0.257-0.469,0.257-0.916,0-1.335
		c0.438-0.8,0.145-1.53-0.913-2.187c-1.416-0.869-2.908-0.666-4.482,0.609l-22.062,20.417l-22.887-20.417
		c-0.549-0.581-1.258-0.927-2.124-1.042c-0.785-0.06-1.493,0.086-2.124,0.434c-0.628,0.405-0.982,0.869-1.062,1.39
		c-0.04,0.328,0.019,0.648,0.165,0.961c-0.055,0.126-0.144,0.242-0.165,0.373c-0.04,0.328,0.019,0.648,0.165,0.962
		c-0.055,0.125-0.144,0.242-0.165,0.374c-0.04,0.328,0.019,0.649,0.165,0.961c-0.055,0.126-0.144,0.243-0.165,0.375
		c-0.04,0.328,0.019,0.648,0.165,0.961c-0.055,0.125-0.144,0.242-0.165,0.374c-0.04,0.328,0.019,0.648,0.165,0.961
		c-0.055,0.125-0.144,0.242-0.165,0.374c-0.04,0.327,0.019,0.648,0.165,0.96c-0.055,0.126-0.144,0.243-0.165,0.375
		C276.694,169.761,276.752,170.081,276.898,170.393z"/>
	<path d="M114.476,170.393c-0.053,0.126-0.145,0.243-0.163,0.375c-0.077,0.638,0.197,1.246,0.825,1.824l20.885,19.289
		c1.887,1.737,4.01,2.606,6.368,2.606c2.36,0,4.481-0.869,6.37-2.606l20.293-19.289c1.057-0.86,1.352-1.647,0.912-2.362
		c0.258-0.469,0.258-0.916,0-1.335c0.258-0.47,0.258-0.916,0-1.335c0.258-0.469,0.258-0.916,0-1.335
		c0.258-0.469,0.258-0.915,0-1.336c0.258-0.469,0.258-0.916,0-1.334c0.258-0.469,0.258-0.916,0-1.335
		c0.439-0.8,0.145-1.53-0.912-2.187c-1.414-0.869-2.908-0.666-4.482,0.609l-22.062,20.417l-22.889-20.417
		c-0.549-0.581-1.256-0.927-2.121-1.042c-0.784-0.06-1.493,0.086-2.123,0.434c-0.631,0.405-0.983,0.869-1.062,1.39
		c-0.039,0.328,0.018,0.648,0.163,0.961c-0.053,0.126-0.144,0.242-0.163,0.373c-0.039,0.328,0.018,0.648,0.163,0.962
		c-0.053,0.125-0.144,0.242-0.163,0.374c-0.039,0.328,0.018,0.649,0.163,0.961c-0.053,0.126-0.144,0.243-0.163,0.375
		c-0.039,0.328,0.018,0.648,0.163,0.961c-0.053,0.125-0.144,0.242-0.163,0.374c-0.039,0.328,0.018,0.648,0.163,0.961
		c-0.053,0.125-0.144,0.242-0.163,0.374c-0.039,0.327,0.018,0.648,0.163,0.96c-0.053,0.126-0.144,0.243-0.163,0.375
		C114.272,169.761,114.329,170.081,114.476,170.393z"/>
</g>
</svg>
